# xmcd
#
# Track frame offsets: 
#        187
#        36615
#        63807
#        76685
#        91247
#        122327
#        142280
#        162582
#
# Disc length: 2410 seconds
#
# Revision: 0
# Processed by: cddbd v1.5.2PL0 Copyright (c) Steve Scherf et al.
# Submitted via: ExactAudioCopy v1.0b3
#
DISCID=66096808
DTITLE=Akira Ito - Four Corners of the Water
DYEAR=1986
DGENRE=New Age
TTITLE0=Mind
TTITLE1=Light
TTITLE2=Beauty
TTITLE3=Heart
TTITLE4=Imagine
TTITLE5=Dreaming
TTITLE6=Breathing
TTITLE7=Loving
EXTD=
EXTT0=
EXTT1=
EXTT2=
EXTT3=
EXTT4=
EXTT5=
EXTT6=
EXTT7=
PLAYORDER=
